<svg height="1054" width="720" xmlns="http://www.w3.org/2000/svg">
<rect height="1054" fill="#555" width="720"></rect>
<text fill="#7f7" font-family="Courier New" font-size="12" xml:space="preserve">
<tspan x="10" y="26">6 megabytes installed</tspan>
<tspan x="10" y="42"></tspan>
<tspan x="10" y="58">node_modules</tspan>
<tspan x="10" y="74">└─┬ flickrapi@0.6.0 </tspan>
<tspan x="10" y="90">  ├── async@0.2.10 </tspan>
<tspan x="10" y="106">  ├─┬ glob@3.2.11 </tspan>
<tspan x="10" y="122">  │ ├── inherits@2.0.3 </tspan>
<tspan x="10" y="138">  │ └─┬ minimatch@0.3.0 </tspan>
<tspan x="10" y="154">  │   ├── lru-cache@2.7.3 </tspan>
<tspan x="10" y="170">  │   └── sigmund@1.0.1 </tspan>
<tspan x="10" y="186">  ├── open@0.0.5 </tspan>
<tspan x="10" y="202">  ├── progress@1.1.4 </tspan>
<tspan x="10" y="218">  ├─┬ prompt@0.2.14 </tspan>
<tspan x="10" y="234">  │ ├── pkginfo@0.4.0 </tspan>
<tspan x="10" y="250">  │ ├─┬ read@1.0.7 </tspan>
<tspan x="10" y="266">  │ │ └── mute-stream@0.0.7 </tspan>
<tspan x="10" y="282">  │ ├── revalidator@0.1.8 </tspan>
<tspan x="10" y="298">  │ ├─┬ utile@0.2.1 </tspan>
<tspan x="10" y="314">  │ │ ├── deep-equal@1.0.1 </tspan>
<tspan x="10" y="330">  │ │ ├── i@0.3.5 </tspan>
<tspan x="10" y="346">  │ │ ├─┬ mkdirp@0.5.1 </tspan>
<tspan x="10" y="362">  │ │ │ └── minimist@0.0.8 </tspan>
<tspan x="10" y="378">  │ │ ├── ncp@0.4.2 </tspan>
<tspan x="10" y="394">  │ │ └─┬ rimraf@2.6.1 </tspan>
<tspan x="10" y="410">  │ │   └─┬ glob@7.1.1 </tspan>
<tspan x="10" y="426">  │ │     ├── fs.realpath@1.0.0 </tspan>
<tspan x="10" y="442">  │ │     ├─┬ inflight@1.0.6 </tspan>
<tspan x="10" y="458">  │ │     │ └── wrappy@1.0.2 </tspan>
<tspan x="10" y="474">  │ │     ├─┬ minimatch@3.0.3 </tspan>
<tspan x="10" y="490">  │ │     │ └─┬ brace-expansion@1.1.7 </tspan>
<tspan x="10" y="506">  │ │     │   ├── balanced-match@0.4.2 </tspan>
<tspan x="10" y="522">  │ │     │   └── concat-map@0.0.1 </tspan>
<tspan x="10" y="538">  │ │     ├── once@1.4.0 </tspan>
<tspan x="10" y="554">  │ │     └── path-is-absolute@1.0.1 </tspan>
<tspan x="10" y="570">  │ └─┬ winston@0.8.3 </tspan>
<tspan x="10" y="586">  │   ├── colors@0.6.2 </tspan>
<tspan x="10" y="602">  │   ├── cycle@1.0.3 </tspan>
<tspan x="10" y="618">  │   ├── eyes@0.1.8 </tspan>
<tspan x="10" y="634">  │   ├── isstream@0.1.2 </tspan>
<tspan x="10" y="650">  │   ├── pkginfo@0.3.1 </tspan>
<tspan x="10" y="666">  │   └── stack-trace@0.0.9 </tspan>
<tspan x="10" y="682">  └─┬ request@2.26.0 </tspan>
<tspan x="10" y="698">    ├── aws-sign@0.3.0 </tspan>
<tspan x="10" y="714">    ├── cookie-jar@0.3.0 </tspan>
<tspan x="10" y="730">    ├── forever-agent@0.5.2 </tspan>
<tspan x="10" y="746">    ├─┬ form-data@0.1.4 </tspan>
<tspan x="10" y="762">    │ ├── async@0.9.2 </tspan>
<tspan x="10" y="778">    │ └─┬ combined-stream@0.0.7 </tspan>
<tspan x="10" y="794">    │   └── delayed-stream@0.0.5 </tspan>
<tspan x="10" y="810">    ├─┬ hawk@1.0.0 </tspan>
<tspan x="10" y="826">    │ ├── boom@0.4.2 </tspan>
<tspan x="10" y="842">    │ ├── cryptiles@0.2.2 </tspan>
<tspan x="10" y="858">    │ ├── hoek@0.9.1 </tspan>
<tspan x="10" y="874">    │ └── sntp@0.2.4 </tspan>
<tspan x="10" y="890">    ├─┬ http-signature@0.10.1 </tspan>
<tspan x="10" y="906">    │ ├── asn1@0.1.11 </tspan>
<tspan x="10" y="922">    │ ├── assert-plus@0.1.5 </tspan>
<tspan x="10" y="938">    │ └── ctype@0.5.3 </tspan>
<tspan x="10" y="954">    ├── json-stringify-safe@5.0.1 </tspan>
<tspan x="10" y="970">    ├── mime@1.2.11 </tspan>
<tspan x="10" y="986">    ├── node-uuid@1.4.8 </tspan>
<tspan x="10" y="1002">    ├── oauth-sign@0.3.0 </tspan>
<tspan x="10" y="1018">    ├── qs@0.6.6 </tspan>
<tspan x="10" y="1034">    └── tunnel-agent@0.3.0</tspan>
</text>
</svg>
